<svg xmlns="http://www.w3.org/2000/svg" xmlns:xlink="http://www.w3.org/1999/xlink" width="501" height="501" viewBox="0 0 501 501" fill="none">
<path d="M267.665 202.156C272.815 200.259 277.865 198.381 283.015 196.617C290.101 194.222 297.247 192.023 304.453 190.019C311.659 188.015 318.914 186.209 326.219 184.601C332.987 183.086 339.712 181.395 346.456 179.743L347.097 180.41C345.314 183.012 343.623 185.672 342.025 188.391C340.426 191.11 338.924 193.882 337.518 196.705C336.734 198.288 335.379 198.735 333.998 199.262C326.415 202.341 319.033 205.843 311.85 209.766C308.554 211.533 305.82 214.337 301.733 215.398C301.864 214.995 302.006 214.596 302.158 214.2C302.31 213.805 302.472 213.414 302.644 213.026C302.817 212.64 302.999 212.257 303.191 211.88C303.384 211.502 303.586 211.13 303.797 210.763C304.009 210.396 304.23 210.035 304.461 209.68C304.692 209.324 304.931 208.975 305.18 208.632C305.429 208.289 305.686 207.953 305.953 207.624C306.219 207.294 306.494 206.972 306.777 206.657C307.44 205.835 308.253 205.112 308.859 204.268C308.884 204.239 308.908 204.21 308.931 204.179C308.953 204.149 308.974 204.117 308.994 204.085C309.014 204.053 309.033 204.02 309.05 203.986C309.067 203.953 309.083 203.919 309.097 203.883C309.111 203.848 309.124 203.813 309.135 203.777C309.147 203.741 309.156 203.704 309.165 203.667C309.173 203.63 309.18 203.593 309.185 203.556C309.19 203.518 309.194 203.481 309.196 203.443C309.198 203.405 309.198 203.367 309.197 203.329C309.196 203.292 309.193 203.254 309.189 203.217C309.185 203.179 309.179 203.142 309.172 203.105C309.164 203.068 309.156 203.031 309.145 202.994C309.135 202.958 309.123 202.922 309.11 202.887C309.096 202.851 309.081 202.816 309.065 202.782C309.049 202.748 309.031 202.715 309.012 202.682C308.993 202.649 308.973 202.618 308.951 202.587C308.505 201.978 307.887 202.134 307.36 202.462C306.584 202.933 305.843 203.453 305.135 204.02C300.898 207.464 296.91 211.175 293.169 215.152C292.023 216.394 291.126 218.066 289.113 218.626C289.102 218.485 289.096 218.345 289.096 218.204C289.096 218.063 289.102 217.923 289.114 217.782C289.125 217.642 289.143 217.502 289.166 217.363C289.19 217.224 289.219 217.087 289.253 216.95C289.288 216.814 289.329 216.679 289.375 216.546C289.421 216.412 289.472 216.281 289.529 216.152C289.586 216.024 289.648 215.898 289.716 215.774C289.783 215.65 289.856 215.53 289.933 215.412C291.093 213.473 292.308 211.569 293.468 209.631C294.13 208.544 295.644 207.258 294.306 206.107C292.968 204.956 291.819 206.56 290.75 207.298C289.767 207.998 288.831 208.756 287.942 209.572C286.442 210.844 285.012 212.192 283.653 213.614C282.294 215.036 281.012 216.525 279.809 218.081C277.405 221.268 274.609 223.676 270.475 224.524C269.085 224.891 267.715 225.321 266.365 225.815C265.016 226.309 263.692 226.864 262.393 227.481C258.11 229.242 253.858 231.104 248.952 233.188C249.756 230.781 250.634 228.4 251.584 226.047C252.534 223.693 253.555 221.371 254.647 219.079C255.739 216.788 256.9 214.533 258.13 212.313C259.36 210.093 260.657 207.912 262.02 205.771C263.328 203.679 265.551 202.951 267.665 202.156ZM355.456 177.923C353.928 180.235 352.485 182.599 351.129 185.015C349.773 187.432 348.506 189.895 347.329 192.404C345.571 196.439 345.141 196.556 340.085 196.423C341.408 193.723 342.831 191.078 344.353 188.485C345.875 185.892 347.491 183.36 349.203 180.889C349.241 180.822 349.28 180.756 349.32 180.69C349.36 180.625 349.402 180.56 349.444 180.496C349.487 180.432 349.531 180.369 349.576 180.307C349.621 180.245 349.668 180.183 349.715 180.123C349.763 180.062 349.811 180.003 349.861 179.944C349.911 179.885 349.961 179.828 350.013 179.771C350.065 179.715 350.119 179.659 350.173 179.605C350.227 179.55 350.282 179.496 350.338 179.444C350.394 179.391 350.452 179.34 350.51 179.29C350.568 179.24 350.627 179.19 350.687 179.142C350.747 179.094 350.808 179.048 350.87 179.002C350.932 178.956 350.995 178.912 351.058 178.869C351.122 178.826 351.186 178.784 351.251 178.743C351.316 178.702 351.382 178.662 351.449 178.624C351.516 178.586 351.583 178.549 351.651 178.514C351.72 178.478 351.788 178.444 351.858 178.411C351.927 178.378 351.998 178.346 352.068 178.316C352.139 178.286 352.21 178.257 352.282 178.229C352.354 178.202 352.426 178.176 352.499 178.151C352.572 178.126 352.645 178.103 352.718 178.081C352.792 178.059 352.866 178.039 352.94 178.02C353.015 178.001 353.09 177.983 353.165 177.967C353.24 177.951 353.316 177.936 353.391 177.923C353.467 177.909 353.543 177.898 353.619 177.888C353.696 177.877 353.772 177.868 353.848 177.861C353.925 177.853 354.001 177.848 354.078 177.843C354.155 177.839 354.232 177.836 354.309 177.834C354.386 177.833 354.462 177.833 354.539 177.834C354.616 177.836 354.693 177.839 354.77 177.843C354.846 177.848 354.923 177.854 355 177.861C355.076 177.868 355.152 177.877 355.228 177.887C355.305 177.898 355.381 177.91 355.456 177.923L355.456 177.923ZM258.521 206.297C258.478 207.77 257.598 208.662 257.074 209.653C253.444 216.585 249.814 223.517 247.509 230.995C246.386 234.698 244.173 236.258 240.564 237.475C241.99 233.068 243.583 228.721 245.343 224.437C247.103 220.152 249.025 215.941 251.109 211.804C251.15 211.712 251.192 211.62 251.235 211.53C251.279 211.439 251.324 211.349 251.37 211.26C251.417 211.17 251.465 211.082 251.514 210.994C251.563 210.906 251.614 210.82 251.666 210.734C251.718 210.647 251.771 210.562 251.826 210.478C251.881 210.394 251.937 210.31 251.995 210.228C252.053 210.145 252.111 210.064 252.171 209.983C252.232 209.902 252.293 209.823 252.356 209.744C252.419 209.665 252.483 209.588 252.548 209.511C252.613 209.435 252.68 209.359 252.747 209.284C252.815 209.21 252.884 209.137 252.954 209.065C253.024 208.992 253.095 208.921 253.167 208.851C253.24 208.782 253.313 208.713 253.388 208.645C253.462 208.578 253.538 208.511 253.615 208.446C253.691 208.381 253.769 208.318 253.848 208.255C253.927 208.192 254.007 208.131 254.087 208.071C254.168 208.011 254.25 207.952 254.333 207.895C254.415 207.838 254.499 207.781 254.583 207.727C254.668 207.672 254.753 207.619 254.839 207.567C254.925 207.515 255.012 207.465 255.1 207.416C255.188 207.366 255.276 207.319 255.366 207.273C255.455 207.226 255.545 207.182 255.636 207.138C255.727 207.095 255.818 207.053 255.91 207.013C256.003 206.972 256.095 206.933 256.189 206.896C256.282 206.859 256.376 206.823 256.471 206.789C256.565 206.754 256.661 206.722 256.756 206.69C256.852 206.659 256.948 206.629 257.044 206.601C257.141 206.573 257.238 206.546 257.335 206.521C257.433 206.496 257.531 206.473 257.629 206.451C257.727 206.429 257.826 206.409 257.924 206.39C258.023 206.372 258.122 206.354 258.222 206.339C258.322 206.324 258.421 206.31 258.521 206.297ZM357.864 178.54C359.207 176.659 361.078 176.014 363.225 175.441C376.513 171.765 390.098 169.478 403.467 166.226C403.501 166.21 403.536 166.196 403.572 166.183C403.607 166.171 403.642 166.159 403.679 166.149C403.715 166.139 403.751 166.13 403.788 166.123C403.825 166.115 403.862 166.109 403.899 166.104C403.936 166.1 403.973 166.096 404.011 166.095C404.048 166.093 404.086 166.092 404.124 166.093C404.161 166.094 404.199 166.097 404.236 166.1C404.273 166.104 404.31 166.109 404.347 166.116C404.384 166.122 404.421 166.13 404.457 166.139C404.494 166.148 404.53 166.159 404.565 166.171C404.601 166.183 404.636 166.196 404.67 166.211C404.705 166.225 404.739 166.241 404.772 166.258C404.806 166.275 404.839 166.294 404.871 166.314C404.903 166.333 404.934 166.354 404.964 166.376C404.995 166.398 405.025 166.421 405.053 166.445C405.082 166.469 405.11 166.494 405.137 166.52C405.089 166.788 405.026 167.151 404.855 167.301C396.803 173.982 389.728 181.679 382.193 188.909C382.085 189.014 381.975 189.116 381.861 189.214C381.748 189.313 381.632 189.409 381.514 189.502C381.396 189.595 381.275 189.685 381.152 189.772C381.029 189.858 380.904 189.942 380.777 190.022C380.65 190.102 380.521 190.179 380.39 190.253C380.259 190.327 380.126 190.397 379.991 190.464C379.856 190.53 379.72 190.594 379.582 190.654C379.444 190.713 379.304 190.769 379.164 190.822C379.023 190.875 378.881 190.924 378.737 190.969C378.594 191.014 378.449 191.056 378.304 191.094C378.158 191.131 378.012 191.165 377.864 191.196C377.717 191.226 377.569 191.252 377.42 191.275C377.272 191.298 377.122 191.317 376.973 191.332C376.824 191.346 376.673 191.357 376.523 191.365C376.373 191.372 376.223 191.376 376.072 191.375C375.922 191.375 375.772 191.37 375.621 191.362C367.826 191.335 360.209 192.617 352.621 194.071C351.512 194.285 350.397 195.076 349.088 194.243C351.049 188.377 354.374 183.45 357.864 178.54ZM156.538 279.61C158.604 273.63 160.51 267.598 162.985 261.751C163.102 261.457 163.23 261.167 163.37 260.883C163.509 260.598 163.659 260.32 163.82 260.046C163.98 259.773 164.151 259.507 164.333 259.247C164.514 258.988 164.705 258.735 164.906 258.49C165.106 258.245 165.316 258.008 165.536 257.78C165.755 257.551 165.982 257.331 166.218 257.119C166.454 256.908 166.698 256.706 166.95 256.514C167.201 256.321 167.46 256.139 167.725 255.966C178.31 248.913 189.029 242.123 199.735 235.271C215.329 225.274 231.998 217.511 249.304 210.366C247.192 214.703 245.221 219.103 243.392 223.566C241.563 228.03 239.879 232.548 238.34 237.119C238.252 237.362 238.153 237.601 238.044 237.835C237.935 238.069 237.815 238.298 237.686 238.522C237.557 238.746 237.418 238.963 237.269 239.175C237.12 239.386 236.963 239.591 236.796 239.788C236.63 239.986 236.455 240.176 236.272 240.358C236.088 240.541 235.897 240.714 235.699 240.88C235.5 241.045 235.295 241.201 235.083 241.349C234.87 241.496 234.652 241.634 234.427 241.762C224.996 248.008 215.007 253.59 207.959 262.844C207.726 263.14 207.417 263.591 206.509 263.142C207.445 257.36 208.136 251.391 209.936 245.689C210.315 244.388 210.624 243.07 210.862 241.736C210.87 241.698 210.877 241.661 210.883 241.623C210.888 241.585 210.892 241.547 210.894 241.509C210.896 241.471 210.897 241.433 210.896 241.395C210.895 241.357 210.893 241.319 210.889 241.281C210.885 241.243 210.88 241.205 210.873 241.168C210.866 241.13 210.857 241.093 210.848 241.056C210.838 241.019 210.827 240.983 210.814 240.947C210.801 240.911 210.787 240.876 210.771 240.841C210.755 240.806 210.738 240.772 210.72 240.739C210.701 240.705 210.682 240.673 210.661 240.641C210.64 240.609 210.617 240.578 210.594 240.548C210.571 240.518 210.546 240.489 210.52 240.461C210.494 240.433 210.467 240.406 210.439 240.38C210.411 240.354 210.382 240.33 210.352 240.306C210.322 240.282 210.291 240.26 210.259 240.239C210.227 240.218 210.195 240.198 210.161 240.18C210.127 240.165 210.091 240.151 210.056 240.14C210.02 240.128 209.983 240.118 209.946 240.109C209.91 240.1 209.873 240.093 209.835 240.088C209.798 240.082 209.76 240.078 209.722 240.076C209.685 240.074 209.647 240.073 209.609 240.074C209.572 240.076 209.534 240.078 209.496 240.083C209.459 240.087 209.422 240.093 209.385 240.1C209.348 240.108 209.311 240.117 209.275 240.128C209.239 240.139 209.203 240.151 209.168 240.165C209.133 240.179 209.098 240.194 209.064 240.211C209.03 240.228 208.998 240.246 208.965 240.266C208.933 240.285 208.902 240.307 208.872 240.329C208.841 240.352 208.812 240.375 208.783 240.4C208.755 240.426 208.728 240.452 208.702 240.479C208.676 240.506 208.651 240.535 208.627 240.564C208.604 240.594 208.582 240.624 208.561 240.656C207.723 241.72 206.902 242.779 206.098 243.833C202.162 249.158 198.219 254.385 194.6 259.958C195.747 255.225 197.104 250.601 198.382 245.951C198.592 245.17 199.181 244.082 198.069 243.561C196.957 243.039 196.412 244.015 196.009 244.798C191.336 253.894 184.5 261.873 182.012 272.088C182.004 272.153 181.993 272.218 181.98 272.282C181.967 272.346 181.952 272.409 181.934 272.472C181.916 272.536 181.896 272.598 181.873 272.659C181.851 272.72 181.826 272.781 181.799 272.84C181.772 272.9 181.742 272.959 181.711 273.016C181.679 273.073 181.646 273.129 181.61 273.184C181.574 273.239 181.536 273.293 181.497 273.345C181.457 273.397 181.415 273.447 181.372 273.496C181.328 273.545 181.283 273.592 181.236 273.637C181.189 273.683 181.14 273.727 181.09 273.768C181.039 273.81 180.987 273.85 180.934 273.888C180.88 273.926 180.826 273.961 180.77 273.995C180.714 274.029 180.656 274.06 180.598 274.09C180.539 274.119 180.48 274.146 180.419 274.172C180.359 274.197 180.297 274.219 180.235 274.239C180.173 274.26 180.11 274.278 180.047 274.294C172.203 276.449 164.427 278.834 156.913 281.578C156.883 281.547 156.853 281.514 156.825 281.48C156.796 281.446 156.769 281.411 156.743 281.375C156.718 281.339 156.693 281.302 156.67 281.265C156.647 281.227 156.625 281.189 156.605 281.149C156.584 281.11 156.566 281.07 156.548 281.03C156.531 280.989 156.515 280.948 156.5 280.906C156.486 280.864 156.473 280.822 156.461 280.779C156.45 280.737 156.44 280.693 156.432 280.65C156.424 280.607 156.417 280.563 156.412 280.519C156.407 280.475 156.403 280.431 156.401 280.387C156.399 280.343 156.399 280.299 156.4 280.255C156.402 280.21 156.404 280.166 156.409 280.122C156.414 280.078 156.42 280.035 156.427 279.991C156.435 279.948 156.444 279.904 156.455 279.861C156.466 279.819 156.478 279.776 156.492 279.734C156.506 279.692 156.521 279.651 156.538 279.61Z"   fill="#FECC11" >
</path>
<path d="M89.5265 309.494C92.8567 302.558 95.752 295.445 98.2125 288.154C100.716 280.169 105.191 273.086 107.978 265.271C108.011 265.164 108.046 265.057 108.083 264.951C108.12 264.845 108.159 264.74 108.199 264.636C108.24 264.531 108.282 264.427 108.326 264.324C108.37 264.22 108.416 264.118 108.464 264.017C108.512 263.915 108.561 263.814 108.612 263.714C108.663 263.614 108.716 263.515 108.77 263.417C108.825 263.319 108.881 263.222 108.939 263.126C108.997 263.03 109.056 262.935 109.117 262.841C109.178 262.747 109.241 262.654 109.305 262.561C109.37 262.469 109.435 262.379 109.503 262.289C109.57 262.199 109.639 262.111 109.71 262.023C109.78 261.936 109.852 261.85 109.925 261.765C109.999 261.68 110.073 261.597 110.15 261.514C110.226 261.432 110.304 261.351 110.383 261.271C110.462 261.191 110.542 261.113 110.624 261.036C110.706 260.959 110.788 260.884 110.873 260.81C110.957 260.736 111.043 260.663 111.129 260.592C111.216 260.521 111.304 260.451 111.393 260.383C111.483 260.315 111.573 260.249 111.664 260.183C111.756 260.118 111.848 260.055 111.942 259.993C112.036 259.931 112.13 259.871 112.226 259.813C112.322 259.754 112.418 259.697 112.516 259.642C112.614 259.587 112.712 259.533 112.812 259.481C112.911 259.429 113.011 259.379 113.113 259.331C113.214 259.282 113.316 259.236 113.419 259.191C113.522 259.146 113.625 259.102 113.729 259.061C113.834 259.019 113.939 258.98 114.044 258.942C114.15 258.904 114.256 258.868 114.363 258.834C114.47 258.8 114.577 258.768 114.685 258.738C114.793 258.707 114.902 258.678 115.011 258.652C115.12 258.625 115.229 258.6 115.339 258.577C115.449 258.554 115.559 258.533 115.67 258.514C117.429 258.073 119.209 257.741 121.01 257.517C124.763 257.12 128.557 256.97 132.298 256.51C135.435 256.124 138.502 255.461 141.655 254.85C141.679 254.849 141.703 254.847 141.726 254.844C141.75 254.842 141.774 254.839 141.797 254.835C141.821 254.831 141.845 254.827 141.868 254.822C141.891 254.817 141.915 254.812 141.938 254.806C141.961 254.799 141.984 254.793 142.006 254.786C142.029 254.778 142.051 254.77 142.074 254.762C142.096 254.753 142.118 254.744 142.14 254.734C142.162 254.724 142.183 254.714 142.205 254.704C142.226 254.693 142.247 254.681 142.268 254.669C142.289 254.657 142.309 254.645 142.329 254.632C142.349 254.619 142.369 254.606 142.388 254.592C142.408 254.577 142.426 254.563 142.445 254.548C142.464 254.533 142.482 254.517 142.499 254.501C142.518 254.485 142.535 254.469 142.551 254.452C142.568 254.435 142.585 254.418 142.601 254.4C142.617 254.382 142.632 254.364 142.647 254.345C142.662 254.327 142.677 254.308 142.691 254.288C142.705 254.269 142.718 254.249 142.731 254.229C142.745 254.209 142.757 254.189 142.769 254.168C142.781 254.147 142.792 254.127 142.803 254.105C142.814 254.084 142.824 254.062 142.834 254.041C142.843 254.019 142.853 253.996 142.861 253.974C142.869 253.952 142.877 253.929 142.885 253.907C142.892 253.884 142.899 253.861 142.905 253.838C142.911 253.815 142.916 253.792 142.921 253.768C142.926 253.745 142.931 253.721 142.934 253.698C142.938 253.674 142.941 253.65 142.943 253.627C142.946 253.603 142.948 253.579 142.949 253.555C142.95 253.531 142.951 253.507 142.95 253.484C142.95 253.46 142.95 253.436 142.948 253.412C142.947 253.388 142.945 253.364 142.943 253.341C142.94 253.316 142.937 253.293 142.933 253.269C142.814 252.575 142.177 252.366 141.592 252.275C138.068 251.774 134.712 250.327 130.965 250.208C126.714 250.084 122.5 248.86 117.923 248.053C123.36 241.861 128.89 236.312 134.067 230.435C134.177 230.301 134.289 230.169 134.403 230.038C134.517 229.906 134.633 229.777 134.75 229.649C134.868 229.521 134.987 229.394 135.108 229.27C135.229 229.145 135.351 229.022 135.476 228.9C135.6 228.779 135.726 228.659 135.853 228.541C135.981 228.423 136.11 228.307 136.24 228.193C136.371 228.078 136.503 227.965 136.636 227.854C136.77 227.743 136.905 227.634 137.042 227.527C137.178 227.419 137.316 227.314 137.456 227.21C137.595 227.106 137.736 227.005 137.878 226.905C138.02 226.805 138.164 226.707 138.309 226.612C138.454 226.516 138.6 226.422 138.747 226.33C138.894 226.238 139.043 226.148 139.193 226.06C139.343 225.972 139.493 225.886 139.646 225.802C139.798 225.718 139.951 225.636 140.105 225.557C140.26 225.477 140.415 225.399 140.571 225.324C140.728 225.248 140.885 225.174 141.044 225.103C141.202 225.032 141.362 224.963 141.522 224.896C141.682 224.829 141.843 224.764 142.005 224.701C142.167 224.639 142.33 224.578 142.494 224.52C142.657 224.462 142.822 224.406 142.987 224.352C143.152 224.298 143.318 224.246 143.485 224.197C143.651 224.148 143.819 224.101 143.986 224.056C144.154 224.011 144.323 223.969 144.492 223.929C144.66 223.889 144.83 223.85 145 223.815C145.17 223.779 145.341 223.746 145.512 223.715C145.683 223.684 145.854 223.655 146.026 223.629C146.197 223.602 146.369 223.578 146.542 223.556C146.714 223.535 146.887 223.515 147.059 223.498C147.232 223.481 147.405 223.466 147.579 223.454C147.752 223.441 147.925 223.431 148.099 223.423C148.272 223.415 148.446 223.41 148.62 223.407C149.068 223.39 149.524 223.398 149.977 223.358C156.749 222.77 163.517 222.182 170.282 221.593C171.162 221.519 172.284 221.573 172.253 220.316C172.239 219.507 171.423 219.086 170.656 218.927L167.527 218.375C164.749 217.68 161.77 218.19 158.582 216.882C161.977 215.855 165.05 216.313 167.988 215.76C170.927 215.206 174.143 216.219 177.697 213.475C170.373 211.726 163.535 211.869 156.999 209.609C161.851 205.168 165.978 200.743 170.865 197.127C175.327 193.742 179.92 190.545 184.645 187.538C189.369 184.531 194.209 181.722 199.164 179.113C199.465 178.958 199.772 178.816 200.084 178.686C200.397 178.557 200.714 178.441 201.036 178.338C201.358 178.235 201.684 178.146 202.013 178.07C202.343 177.994 202.675 177.932 203.009 177.884C203.344 177.835 203.68 177.801 204.017 177.781C204.355 177.76 204.693 177.754 205.031 177.761C205.369 177.769 205.706 177.79 206.042 177.826C206.379 177.861 206.713 177.911 207.045 177.974C209.048 178.351 211.032 178.813 212.996 179.36C214.96 179.908 216.896 180.538 218.806 181.252C219.76 181.576 220.937 182.205 221.557 180.87C222.054 179.827 221.017 179.294 220.362 178.709C218.901 177.378 217.366 176.14 215.755 174.994C214.145 173.848 212.472 172.803 210.735 171.86L218.541 167.121C237.341 155.666 257.752 148.322 279.06 143.195C279.748 143.023 280.438 142.865 281.132 142.721C281.826 142.576 282.522 142.446 283.221 142.329C283.92 142.213 284.621 142.11 285.324 142.021C286.027 141.932 286.731 141.858 287.437 141.797C288.144 141.736 288.85 141.69 289.558 141.657C290.266 141.625 290.974 141.606 291.683 141.602C292.391 141.598 293.1 141.608 293.808 141.632C294.516 141.656 295.224 141.694 295.93 141.746C296.637 141.798 297.342 141.864 298.046 141.945C298.75 142.025 299.453 142.119 300.153 142.227C300.853 142.335 301.551 142.458 302.246 142.594C302.942 142.73 303.634 142.88 304.323 143.043C305.013 143.207 305.699 143.384 306.381 143.575C307.064 143.766 307.742 143.971 308.416 144.189C309.09 144.407 309.76 144.638 310.425 144.882C311.09 145.127 311.75 145.385 312.404 145.656C315.398 146.759 318.443 147.697 321.539 148.47C322.262 148.67 323.08 148.742 323.503 147.842C323.533 147.773 323.559 147.703 323.58 147.63C323.601 147.558 323.617 147.485 323.628 147.411C323.64 147.337 323.646 147.262 323.648 147.187C323.649 147.112 323.646 147.037 323.637 146.962C323.629 146.888 323.616 146.814 323.597 146.741C323.579 146.668 323.556 146.597 323.529 146.527C323.501 146.457 323.469 146.389 323.432 146.323C323.396 146.258 323.355 146.195 323.311 146.135C323.022 145.681 322.71 145.244 322.374 144.823C322.039 144.402 321.683 144 321.305 143.617C320.928 143.234 320.531 142.872 320.115 142.531C319.7 142.189 319.267 141.87 318.818 141.575C316.157 139.733 313.627 137.698 311.035 135.736C311.875 135.783 312.712 135.858 313.546 135.961C314.38 136.063 315.21 136.194 316.036 136.351C316.862 136.509 317.681 136.694 318.495 136.906C319.308 137.118 320.114 137.357 320.911 137.622C328.343 139.919 328.325 139.952 330.678 139.031C327.829 135.255 322.665 134.573 319.453 130.805C321.571 129.898 323.719 129.068 325.895 128.314C328.073 127.56 330.273 126.884 332.498 126.287C334.724 125.689 336.967 125.171 339.228 124.733C341.49 124.295 343.765 123.938 346.052 123.661C346.202 123.636 346.353 123.617 346.504 123.606C346.656 123.594 346.808 123.59 346.96 123.594C347.112 123.597 347.264 123.608 347.415 123.626C347.566 123.644 347.716 123.669 347.865 123.701C348.013 123.734 348.16 123.773 348.305 123.82C348.45 123.866 348.592 123.92 348.732 123.98C348.872 124.04 349.008 124.107 349.141 124.18C349.275 124.254 349.404 124.333 349.53 124.419C354.243 127.658 359.135 130.639 363.212 134.824C370.285 142.091 377.687 148.993 386.555 154.132C390.027 156.153 393.291 158.534 397.399 161.245C395.333 161.699 394.176 161.977 392.993 162.201C377.864 165.191 362.699 168.115 347.849 172.455C317.829 181.318 287.9 190.69 259.088 203.077C240.748 210.966 222.372 218.849 205.229 229.236C185.274 241.366 166.027 254.464 146.526 267.229C138.593 272.529 130.848 278.091 123.291 283.915C115.734 289.739 108.383 295.812 101.237 302.134C97.3852 305.475 93.4551 308.718 89.4649 312.096C89.416 311.994 89.3732 311.89 89.3366 311.784C89.3 311.677 89.2698 311.568 89.2459 311.459C89.2221 311.348 89.2049 311.237 89.1942 311.125C89.1836 311.013 89.1796 310.9 89.1823 310.788C89.1849 310.675 89.1942 310.563 89.2101 310.451C89.2261 310.34 89.2485 310.229 89.2775 310.121C89.3064 310.012 89.3417 309.905 89.3833 309.8C89.4249 309.696 89.4725 309.594 89.5262 309.494L89.5265 309.494Z"   fill="#B7AE8F" >
</path>
<path d="M160.801 260.824C158.642 267.402 155.96 272.851 154.805 278.787C154.796 278.865 154.784 278.944 154.771 279.022C154.759 279.1 154.744 279.178 154.728 279.256C154.713 279.333 154.696 279.411 154.677 279.488C154.658 279.565 154.638 279.641 154.617 279.717C154.595 279.794 154.572 279.869 154.548 279.945C154.524 280.02 154.498 280.095 154.471 280.169C154.444 280.244 154.415 280.318 154.385 280.391C154.355 280.464 154.324 280.537 154.292 280.609C154.259 280.681 154.225 280.753 154.19 280.824C154.155 280.895 154.118 280.965 154.08 281.035C154.042 281.104 154.003 281.173 153.962 281.241C153.922 281.309 153.88 281.376 153.837 281.443C153.794 281.509 153.75 281.575 153.704 281.64C153.659 281.705 153.612 281.769 153.564 281.832C153.517 281.895 153.468 281.957 153.417 282.018C153.367 282.08 153.316 282.14 153.263 282.2C153.211 282.259 153.157 282.317 153.103 282.375C153.048 282.432 152.993 282.488 152.936 282.543C152.879 282.599 152.821 282.653 152.763 282.706C152.704 282.759 152.644 282.811 152.584 282.862C152.523 282.913 152.461 282.963 152.399 283.011C152.336 283.06 152.273 283.107 152.208 283.153C152.144 283.2 152.079 283.245 152.013 283.289C151.947 283.332 151.88 283.374 151.813 283.416C151.745 283.457 151.677 283.497 151.607 283.536C151.538 283.575 151.469 283.612 151.398 283.648C151.328 283.684 151.257 283.719 151.185 283.753C151.113 283.786 151.041 283.818 150.967 283.849C150.895 283.88 150.821 283.909 150.747 283.937C150.673 283.965 150.598 283.991 150.523 284.017C150.448 284.042 150.373 284.065 150.296 284.088C150.221 284.111 150.144 284.131 150.067 284.151C130.911 290.728 113.301 300.347 96.4971 311.541C96.3618 311.651 96.2221 311.755 96.078 311.853C95.9341 311.951 95.7862 312.044 95.6345 312.13C95.4828 312.215 95.3278 312.295 95.1694 312.368C95.011 312.441 94.85 312.507 94.686 312.567C94.5222 312.626 94.3561 312.679 94.1877 312.725C94.0195 312.77 93.8496 312.809 93.678 312.841C93.5065 312.872 93.3339 312.896 93.1604 312.913C92.9869 312.93 92.8129 312.94 92.6386 312.943C113.794 293.934 135.558 275.779 160.801 260.825L160.801 260.824ZM399.693 165.512C398.437 165.808 395.313 166.317 394.936 166.407C385.369 168.44 332.667 181.007 319.426 183.187C328.291 177.9 397.747 162.28 399.776 161.831C399.659 161.811 394.056 158.09 392.81 156.895C392.365 156.48 378.998 147.911 373.66 139.542C373.151 138.742 372.068 138.058 373.079 136.828C374.831 137.137 375.42 138.709 376.368 139.815C377.168 140.752 377.992 141.666 378.84 142.559C379.689 143.451 380.561 144.319 381.456 145.164C382.352 146.009 383.269 146.83 384.209 147.625C385.149 148.421 386.109 149.19 387.09 149.934C388.072 150.678 389.072 151.395 390.092 152.085C391.112 152.775 392.149 153.437 393.205 154.071C394.26 154.705 395.332 155.31 396.42 155.886C397.508 156.462 398.611 157.008 399.729 157.525C399.877 157.606 400.027 157.683 400.179 157.755C400.331 157.827 400.485 157.894 400.641 157.958C400.797 158.021 400.955 158.079 401.114 158.133C401.274 158.187 401.435 158.236 401.598 158.28C401.76 158.324 401.924 158.364 402.089 158.399C402.253 158.433 402.419 158.463 402.586 158.488C402.752 158.513 402.919 158.533 403.087 158.548C403.255 158.563 403.423 158.573 403.591 158.578C403.759 158.584 403.928 158.584 404.096 158.579C404.264 158.575 404.432 158.565 404.6 158.551C404.768 158.536 404.935 158.516 405.102 158.492C405.269 158.467 405.434 158.438 405.599 158.404C405.764 158.37 405.927 158.331 406.09 158.287C406.253 158.243 406.414 158.195 406.573 158.141C406.733 158.088 406.892 158.03 407.048 157.967C407.204 157.905 407.359 157.837 407.511 157.766C403.813 155.115 400.418 152.663 397.008 150.22C396.581 149.94 396.161 149.65 395.748 149.349C395.335 149.049 394.93 148.739 394.531 148.418C394.134 148.098 393.744 147.769 393.361 147.43C392.979 147.091 392.606 146.742 392.24 146.385C391.875 146.028 391.519 145.662 391.172 145.288C390.825 144.913 390.486 144.531 390.158 144.14C389.829 143.749 389.51 143.35 389.2 142.944C388.891 142.537 388.591 142.124 388.302 141.703C387.766 140.85 387.03 139.902 388.464 138.806C393.051 145.899 400.339 149.832 406.99 154.508C409.561 156.31 412.465 157.592 416.027 155.548C414.947 154.852 414.052 154.26 413.154 153.753C410.379 152.217 407.537 150.788 404.828 149.155C403.274 148.207 401.583 147.078 402.004 143.938C406.155 148.523 411.347 150.004 415.83 152.708C415.988 152.809 416.148 152.906 416.311 152.999C416.474 153.091 416.639 153.179 416.807 153.263C416.975 153.346 417.145 153.425 417.317 153.499C417.489 153.573 417.663 153.642 417.839 153.707C418.015 153.772 418.192 153.832 418.372 153.886C418.551 153.941 418.731 153.991 418.913 154.036C419.095 154.081 419.278 154.121 419.462 154.156C419.646 154.192 419.831 154.222 420.017 154.247C420.202 154.272 420.389 154.292 420.575 154.306C420.762 154.321 420.949 154.331 421.137 154.335C421.324 154.34 421.511 154.34 421.698 154.334C421.886 154.328 422.073 154.318 422.259 154.302C422.446 154.286 422.632 154.265 422.818 154.239C423.004 154.213 423.188 154.182 423.372 154.146C423.556 154.11 423.739 154.068 423.921 154.022C424.102 153.976 424.282 153.925 424.461 153.869C427.333 153.076 430.224 152.357 433.133 151.713C436.042 151.068 438.966 150.5 441.905 150.007C444.843 149.514 447.792 149.097 450.753 148.756C453.713 148.415 456.68 148.152 459.654 147.964C464.389 147.596 467.74 149.896 471.057 152.455C471.766 153.001 472.444 153.723 472.008 154.778C471.569 155.832 470.673 155.517 469.734 155.508C455.917 155.299 442.357 157.783 428.723 159.532C427.976 159.644 427.237 159.798 426.508 159.995C425.779 160.193 425.063 160.432 424.362 160.713C423.902 160.889 423.446 161.072 422.993 161.263C422.54 161.455 422.089 161.653 421.643 161.859C421.196 162.065 420.753 162.279 420.314 162.5C419.874 162.721 419.439 162.95 419.007 163.185C418.575 163.421 418.148 163.664 417.724 163.914C417.3 164.164 416.881 164.421 416.466 164.685C416.051 164.949 415.641 165.22 415.234 165.498C414.829 165.776 414.427 166.06 414.031 166.352C413.635 166.643 413.243 166.941 412.857 167.246C412.471 167.55 412.09 167.861 411.714 168.178C411.338 168.495 410.967 168.819 410.602 169.149C410.237 169.478 409.878 169.814 409.524 170.156C409.17 170.497 408.822 170.845 408.48 171.198C408.138 171.552 407.802 171.911 407.472 172.276C407.142 172.641 406.818 173.011 406.5 173.387C406.183 173.762 405.871 174.143 405.566 174.529C404.858 175.403 404.559 176.759 402.748 176.861C402.782 173.183 405.656 171.355 407.691 169.306C409.847 166.977 412.407 165.021 415.115 162.634C412.287 162.219 400.283 165.375 399.693 165.512Z"   fill="#5E5314" >
</path>
<g >
<path     fill="#C08EAF"  d="M75.48 338.5L67.8 360.22L42.84 351.46L77.28 255.7L109.8 255.7L144.24 351.46L119.28 360.22L111.6 338.5L75.48 338.5ZM93.6 287.02L82.44 318.58L104.64 318.58L93.6 287.02ZM213.96 360.22L151.8 360.22L151.8 340.3L159 333.1L178.2 333.1L178.2 340.3L205.08 340.3L205.08 317.86L153.24 317.86L153.24 273.46L170.76 255.82L233.64 255.82L233.64 275.74L226.44 282.94L207.24 282.94L207.24 275.74L179.64 275.74L179.64 297.94L231.6 297.94L231.6 342.7L213.96 360.22ZM270.84 360.22L245.64 360.22L245.64 255.82L290.52 255.82L299.4 334.42L300.36 334.42L309.84 255.82L354.12 255.82L354.12 360.22L328.8 360.22L328.8 275.86L327.6 275.86L316.2 355.18L283.56 355.18L272.04 275.74L270.84 275.74L270.84 360.22ZM455.88 349.18L432.96 362.38L408 319.54L393.84 319.54L393.84 360.22L367.32 360.22L367.32 273.46L384.96 255.82L453.84 255.82L453.84 302.02L437.64 318.1L455.88 349.18ZM393.84 275.74L393.84 299.62L427.32 299.62L427.32 275.74L393.84 275.74Z">
</path>
<path fill-rule="evenodd"  fill="rgba(0, 0, 0, 1)"  d="M75.9514,338.667l-7.8463,22.19l-25.9061,-9.092l34.7295,-96.565h33.2235l34.729,96.565l-25.906,9.092l-7.846,-22.19l0.471,-0.167v0.5h-36.12v-0.5zM75.1265,338h36.8275l7.797,22.053l-0.471,0.167l-0.166,-0.472l24.96,-8.76l0.166,0.472l-0.47,0.169l-34.44,-95.76l0.47,-0.169v0.5h-32.52v-0.5l0.4705,0.169l-34.44,95.76l-0.4705,-0.169l0.1656,-0.472l24.96,8.76l-0.1656,0.472l-0.4714,-0.167l7.68,-21.72zM94.0714,287.187l-11.16,31.56l-0.4714,-0.167v-0.5h22.2v0.5l-0.472,0.165l-11.0399,-31.56l0.4719,-0.165zM93.6026,285.513l11.7424,33.567h-23.6121l11.3957,-32.227zM213.96,360.72h-62.66v-20.627l7.493,-7.493h19.907v7.7h-0.5v-0.5h26.88v0.5h-0.5v-22.44h0.5v0.5h-52.34v-45.106l17.812,-17.934h63.588v20.627l-7.493,7.493h-19.907v-7.7h0.5v0.5h-27.6v-0.5h0.5v22.2h-0.5v-0.5h52.46v45.468l-17.934,17.812zM213.96,359.72v0.5l-0.352,-0.355l17.64,-17.52l0.352,0.355h-0.5v-44.76h0.5v0.5h-52.46v-23.2h28.6v7.7h-0.5v-0.5h19.2v0.5l-0.354,-0.354l7.2,-7.2l0.354,0.354h-0.5v-19.92h0.5v0.5h-62.88v-0.5l0.355,0.352l-17.52,17.64l-0.355,-0.352h0.5v44.4h-0.5v-0.5h52.34v23.44h-27.88v-7.7h0.5v0.5h-19.2v-0.5l0.354,0.354l-7.2,7.2l-0.354,-0.354h0.5v19.92h-0.5v-0.5zM270.84,360.72h-25.7v-105.4h45.827l8.93,79.044l-0.497,0.056v-0.5h0.96v0.5l-0.496,-0.06l9.533,-79.04h45.223v105.4h-26.32v-84.86h0.5v0.5h-1.2v-0.5l0.495,0.071l-11.462,79.749h-33.506l-11.582,-79.868l0.495,-0.072v0.5h-1.2v-0.5h0.5v84.98zM270.84,359.72v0.5h-0.5v-84.98h2.133l11.582,79.868l-0.495,0.072v-0.5h32.64v0.5l-0.495,-0.071l11.462,-79.749h2.133v84.86h-0.5v-0.5h25.32v0.5h-0.5v-104.4h0.5v0.5h-44.28v-0.5l0.496,0.06l-9.533,79.04h-1.85l-8.93,-79.044l0.497,-0.056v0.5h-44.88v-0.5h0.5v104.4h-0.5v-0.5zM456.13,349.613l-23.352,13.449l-25.21,-43.27l0.432,-0.252v0.5h-14.16v-0.5h0.5v41.18h-27.52v-87.467l17.933,-17.933h69.587v46.908l-16.348,16.227l-0.352,-0.355l0.431,-0.253l18.495,31.515zM455.63,348.747l0.25,0.433l-0.431,0.253l-18.437,-31.415l16.476,-16.353l0.352,0.355h-0.5v-46.2h0.5v0.5h-68.88v-0.5l0.354,0.354l-17.64,17.64l-0.354,-0.354h0.5v86.76h-0.5v-0.5h26.52v0.5h-0.5v-41.18h14.947l25.105,43.088l-0.432,0.252l-0.25,-0.433zM394.34,275.74v23.88h-0.5v-0.5h33.48v0.5h-0.5v-23.88h0.5v0.5h-33.48v-0.5zM393.34,275.24h34.48v24.88h-34.48v-24.38z">
</path>
</g>
<path   transform="translate(0.5, 0.5)" stroke="rgba(0, 0, 0, 1)" stroke-width="1"    d="">
</path>
</svg>
